<svg xmlns="http://www.w3.org/2000/svg" width="97.065" height="103.536" viewBox="0 0 97.065 103.536">
  <g id="Icon_Empower" transform="translate(-1497.935 -1090.319)">
    <g id="idea-svgrepo-com_1_" data-name="idea-svgrepo-com (1)" transform="translate(1517.348 1090.319)">
      <path id="Path_227" data-name="Path 227" d="M129.8,55.947v7.145a6.481,6.481,0,0,0,5.019,6.3,6.469,6.469,0,0,0,12.61,0,6.481,6.481,0,0,0,5.019-6.3V55.947a29.119,29.119,0,1,0-22.648,0ZM141.12,71.181a3.235,3.235,0,0,1-2.8-1.618h5.6A3.235,3.235,0,0,1,141.12,71.181Zm8.089-8.089a3.239,3.239,0,0,1-3.236,3.235h-9.706a3.239,3.239,0,0,1-3.235-3.235v-6a29.164,29.164,0,0,0,16.177,0ZM137.83,54.586,133,36.456a5.66,5.66,0,0,0,2.942.752,5.869,5.869,0,0,0,3.444-1.053,2.95,2.95,0,0,1,3.465,0,5.88,5.88,0,0,0,3.447,1.053,5.674,5.674,0,0,0,2.953-.756l-4.836,18.134a1.623,1.623,0,0,0-.04.213,26.06,26.06,0,0,1-6.5,0A1.692,1.692,0,0,0,137.83,54.586Zm3.29-51.351A25.885,25.885,0,0,1,147.888,54.1l6.12-22.948a1.618,1.618,0,0,0-3.126-.834l-.569,2.134a6.07,6.07,0,0,0-2.284.953,2.957,2.957,0,0,1-3.47,0,6.163,6.163,0,0,0-6.891,0,2.942,2.942,0,0,1-3.459,0,6.053,6.053,0,0,0-2.28-.954l-.569-2.134a1.618,1.618,0,0,0-3.126.834l6.12,22.948A25.885,25.885,0,0,1,141.12,3.236Z" transform="translate(-112.001 0)" fill="#f8f001"/>
      <path id="Path_228" data-name="Path 228" d="M289.037,43.1a19.587,19.587,0,0,1,10.444,10.438,1.618,1.618,0,1,0,2.985-1.248,22.847,22.847,0,0,0-12.182-12.176,1.618,1.618,0,0,0-1.247,2.986Z" transform="translate(-252.443 -31.9)" fill="#f8f001"/>
    </g>
    <g id="idea-svgrepo-com_1_2" data-name="idea-svgrepo-com (1)" transform="translate(1497.935 1158.264)">
      <path id="Path_226" data-name="Path 226" d="M109.971,351.782a15.72,15.72,0,0,0-8.8-6.414c-.035-.01-.07-.018-.105-.026l-12.905-2.7-3.474-5.267c-.018-.027-.037-.054-.056-.08A3.236,3.236,0,0,0,80,336.733l-.031.026L64.532,350.045,49.1,336.759l-.031-.026a3.236,3.236,0,0,0-4.637.563q-.029.039-.056.08L40.9,342.643,28,345.343c-.035.007-.071.016-.105.026a15.721,15.721,0,0,0-8.8,6.414A17.8,17.8,0,0,0,16,361.712v4.012c0,3.235,2.9,5.867,6.471,5.867h84.123c3.568,0,6.471-2.632,6.471-5.867v-4.012A17.8,17.8,0,0,0,109.971,351.782ZM82.044,339.24l3.169,4.806L74.044,359.4l-3.514-3.514h0l-3.62-3.62ZM62.915,363.5H66.15c.1,0,.194,0,.29-.009l.972,4.863h-5.76l.972-4.863C62.721,363.5,62.818,363.5,62.915,363.5Zm4.853-4.853a1.62,1.62,0,0,1-1.618,1.618H62.915A1.62,1.62,0,0,1,61.3,358.65V357.7l3.235-3.236,3.235,3.236ZM47.021,339.24l15.135,13.028-3.62,3.62h0L55.021,359.4,43.852,344.045ZM19.236,365.725v-4.012c0-5.233,3.255-11.443,9.477-13.214l12.479-2.61,12.327,16.949a1.618,1.618,0,0,0,1.182.661c.042,0,.085,0,.127,0a1.618,1.618,0,0,0,1.144-.474l2.479-2.479a4.873,4.873,0,0,0,1.139,1.629l-1.236,6.177H22.471C20.687,368.357,19.236,367.176,19.236,365.725Zm90.594,0c0,1.451-1.452,2.632-3.235,2.632H70.712l-1.235-6.177a4.875,4.875,0,0,0,1.139-1.629L73.1,363.03a1.617,1.617,0,0,0,1.144.474q.063,0,.127,0a1.617,1.617,0,0,0,1.182-.661l12.327-16.949,12.479,2.61c6.222,1.771,9.477,7.981,9.477,13.214v4.012Z" transform="translate(-16 -336.002)" fill="#fff"/>
    </g>
  </g>
</svg>
