<svg xmlns="http://www.w3.org/2000/svg" width="109.238" height="108.725" viewBox="0 0 109.238 108.725">
  <g id="IconDeliver" transform="translate(-905.381 -1085.129)">
    <path id="solar-energy-svgrepo-com" d="M2.519,19.568a2.6,2.6,0,0,1,3.159-1.875l6.016,1.534A16.859,16.859,0,0,1,16.5,12.812L13.329,7.467A2.6,2.6,0,0,1,17.8,4.815l3.173,5.345A16.856,16.856,0,0,1,28.9,9.009l1.534-6.016A2.6,2.6,0,0,1,35.47,4.276l-1.533,6.014A16.788,16.788,0,0,1,40.3,15.023l5.431-3.116a2.6,2.6,0,0,1,2.585,4.506L40.848,20.7a2.6,2.6,0,0,1-3.514-.907,11.683,11.683,0,0,0-7.116-5.29l-.032-.008-.031-.008A11.767,11.767,0,0,0,15.9,22.951l-.007.026L15.888,23a11.676,11.676,0,0,0,1.282,8.862l.008.014.008.014a11.675,11.675,0,0,0,7.194,5.374,2.6,2.6,0,0,1,1.875,3.158L24.13,48.767A2.6,2.6,0,0,1,19.1,47.484l1.533-6.014a16.759,16.759,0,0,1-6.422-4.8L8.87,39.834a2.6,2.6,0,1,1-2.652-4.467L11.554,32.2A16.763,16.763,0,0,1,10.41,24.26L4.395,22.727a2.6,2.6,0,0,1-1.875-3.158Z" transform="translate(904.602 1084.092)" fill="#f8f001"/>
    <path id="solar-energy-svgrepo-com-2" data-name="solar-energy-svgrepo-com" d="M106.641,205.818H76.783L87.071,188.1h19.076a2.6,2.6,0,0,0,2.6-2.6V130.55a2.6,2.6,0,0,0-2.6-2.6H32.877a2.6,2.6,0,0,0-2.6,2.6V185.5a2.6,2.6,0,0,0,2.6,2.6H51.953l10.288,17.718H2.6a2.6,2.6,0,1,0,0,5.195H106.641a2.6,2.6,0,1,0,0-5.195ZM84.1,133.147h19.447V146.27H84.1Zm0,18.318h19.447v13.122H84.1Zm0,18.317h19.447V182.9H84.1V169.782ZM60.117,133.147h18.79V146.27H60.117Zm0,18.318h18.79v13.122H60.117Zm0,18.317h18.79V182.9H60.117ZM54.922,182.9H35.474V169.782H54.922Zm0-18.318H35.474V151.465H54.922Zm0-18.317H35.474V133.147H54.922Zm13.325,59.548L57.96,188.1h23.1L70.776,205.818H68.248Z" transform="translate(905.381 982.842)" fill="#fff"/>
  </g>
</svg>
