<svg xmlns="http://www.w3.org/2000/svg" width="103.536" height="116.854" viewBox="0 0 103.536 116.854">
  <g id="Icon_Design" transform="translate(-331.232 -1077)">
    <g id="green-energy-svgrepo-com" transform="translate(365.332 1077)">
      <g id="Group_736" data-name="Group 736" transform="translate(0 0)">
        <g id="Group_735" data-name="Group 735">
          <path id="Path_223" data-name="Path 223" d="M175.049,163.866a2.646,2.646,0,0,0,2.268,1.26h12.6a2.519,2.519,0,1,0,0-5.039h-8.062l11.842-19.4-1.26,11.59a4.748,4.748,0,0,0,.5,2.016c.252.5,1.26.756,2.016.756h8.062l-11.842,19.4.252-1.512a2.532,2.532,0,0,0-5.039-.5l-1.512,12.6a2.452,2.452,0,0,0,1.764,2.771c.252,0,.5.252.756.252a3.007,3.007,0,0,0,2.268-1.26l20.156-32.754a2.289,2.289,0,0,0,0-2.519,2.421,2.421,0,0,0-2.268-1.512h-9.826l2.268-19.9a2.452,2.452,0,0,0-1.764-2.772,2.515,2.515,0,0,0-3.024,1.008l-20.156,32.754A5.151,5.151,0,0,0,175.049,163.866Z" transform="translate(-174.86 -127.135)" fill="#f8f001"/>
        </g>
      </g>
    </g>
    <path id="Subtraction_11" data-name="Subtraction 11" d="M56.945,93.553H46.591a5.172,5.172,0,0,1-5.177-5.177V81.847a41.38,41.38,0,0,1-10.652-4.413l-4.62,4.619a5.17,5.17,0,0,1-7.32,0L11.5,74.732a5.172,5.172,0,0,1,0-7.322l4.62-4.619a41.432,41.432,0,0,1-4.413-10.652H5.177A5.172,5.172,0,0,1,0,46.962V36.609a5.172,5.172,0,0,1,5.176-5.177h6.532a41.336,41.336,0,0,1,4.414-10.65l-4.62-4.62a5.172,5.172,0,0,1,0-7.322l7.322-7.322a5.175,5.175,0,0,1,7.32,0l4.618,4.62.357-.208-2.535,5.347-6.1-6.1L15.164,12.5l7.612,7.612a36.156,36.156,0,0,0-6.833,16.495H5.177V46.961H15.939a36.174,36.174,0,0,0,6.833,16.495l-7.612,7.612,7.322,7.322,7.612-7.612a36.156,36.156,0,0,0,16.495,6.833V88.376H56.943V77.612a36.172,36.172,0,0,0,16.495-6.833l7.612,7.612,7.322-7.322L80.76,63.457a36.156,36.156,0,0,0,6.833-16.495H98.359V36.609H87.6a36.174,36.174,0,0,0-6.833-16.495L88.375,12.5,81.053,5.18l-7.612,7.612a36.339,36.339,0,0,0-3.47-2.3l1.364-2.131.007-.007c.343-.364,3.465-3.678,7.33-7.776a5.176,5.176,0,0,1,6.039.938l7.321,7.322a5.172,5.172,0,0,1,0,7.322l-4.618,4.62a41.438,41.438,0,0,1,4.413,10.652h6.531a5.171,5.171,0,0,1,5.177,5.175V46.96a5.172,5.172,0,0,1-5.177,5.177H91.828a41.448,41.448,0,0,1-4.413,10.652l4.618,4.619a5.172,5.172,0,0,1,0,7.322l-7.32,7.322a5.17,5.17,0,0,1-7.32,0l-4.619-4.619a41.437,41.437,0,0,1-10.652,4.413v6.531a5.172,5.172,0,0,1-5.177,5.177ZM51.768,67.669a26.072,26.072,0,0,1-5.216-.526A25.742,25.742,0,0,1,37.3,63.249,25.961,25.961,0,0,1,27.918,51.86,25.755,25.755,0,0,1,26.41,47a26.073,26.073,0,0,1-.526-5.216,25.757,25.757,0,0,1,4.031-13.877,26.056,26.056,0,0,1,2.9-3.746L35.2,29.375a20.512,20.512,0,0,0-4.14,12.41A20.707,20.707,0,1,0,61.6,23.567l2.8-4.376a26.02,26.02,0,0,1,9.588,9.319,25.763,25.763,0,0,1,3.659,13.275A26.073,26.073,0,0,1,77.126,47a25.742,25.742,0,0,1-3.895,9.255,25.961,25.961,0,0,1-11.388,9.378,25.752,25.752,0,0,1-4.859,1.508A26.073,26.073,0,0,1,51.768,67.669Z" transform="translate(331.232 1100.301)" fill="#fff"/>
  </g>
</svg>
