<svg xmlns="http://www.w3.org/2000/svg" width="97.859" height="102.528" viewBox="0 0 97.859 102.528">
  <g id="Icon1" transform="translate(-11.66 0)">
    <g id="Group_736" data-name="Group 736" transform="translate(11.66 0)">
      <g id="Group_735" data-name="Group 735">
        <path id="Path_220" data-name="Path 220" d="M27.97,55.929V53.6a32.65,32.65,0,0,1,24-31.455,2.4,2.4,0,0,0,1.631-2.8,2.4,2.4,0,0,0-2.8-1.631A37.131,37.131,0,0,0,23.31,53.6v2.563a11.536,11.536,0,0,1-5.126,10.252A46.038,46.038,0,0,1,16.32,53.6,43.911,43.911,0,0,1,53.6,10.028v1.631a2.038,2.038,0,0,0,1.4,2.1,1.4,1.4,0,0,0,.932.233,2.115,2.115,0,0,0,1.631-.7l4.66-4.66a2.252,2.252,0,0,0,0-3.262L57.56.708A2.127,2.127,0,0,0,55,.242a2.038,2.038,0,0,0-1.4,2.1v2.8A49.244,49.244,0,0,0,14.689,70.841a2.1,2.1,0,0,0,1.4,1.4h.932a1.4,1.4,0,0,0,.932-.233A16.4,16.4,0,0,0,27.97,55.929Z" transform="translate(-11.66 0)" fill="#007048"/>
        <path id="Path_221" data-name="Path 221" d="M120.426,385.307l-.932-.7a16.93,16.93,0,0,0-18.64,0A32.2,32.2,0,0,1,83.612,389.5a32.615,32.615,0,0,1-22.135-8.621,2.312,2.312,0,1,0-3.029,3.5,37.049,37.049,0,0,0,25.164,9.786,36.1,36.1,0,0,0,19.572-5.592c3.961-2.33,8.388-2.8,12.116-.932a43.487,43.487,0,0,1-31.688,13.514,43.929,43.929,0,0,1-33.552-15.378l1.864-1.165a2.215,2.215,0,0,0,.932-2.33,2.528,2.528,0,0,0-1.864-1.864l-6.524-1.165a2.555,2.555,0,0,0-2.8,1.864l-1.165,6.524a2.215,2.215,0,0,0,.932,2.33,3.935,3.935,0,0,0,1.165.466,3.314,3.314,0,0,0,1.4-.466l2.1-1.4a49.394,49.394,0,0,0,74.792.233,1.812,1.812,0,0,0,.466-1.864A2.358,2.358,0,0,0,120.426,385.307Z" transform="translate(-34.683 -303.283)" fill="#007048"/>
        <path id="Path_222" data-name="Path 222" d="M331.474,94.479l-2.1-.932a47.315,47.315,0,0,0,3.5-17.941,49.333,49.333,0,0,0-39.144-48,1.812,1.812,0,0,0-1.864.466,2.119,2.119,0,0,0-.932,1.864v2.33a16.966,16.966,0,0,0,8.854,14.912,32.45,32.45,0,0,1,16.776,28.426,34.979,34.979,0,0,1-1.165,8.621,2.289,2.289,0,1,0,4.427,1.165,35.882,35.882,0,0,0,1.4-10.019,37.354,37.354,0,0,0-19.339-32.62,12.212,12.212,0,0,1-6.291-10.019,44.184,44.184,0,0,1,32.62,42.638,41.957,41.957,0,0,1-3.029,16.077l-2.1-.932a2.127,2.127,0,0,0-2.563.466,2.629,2.629,0,0,0-.7,2.563l2.33,6.291a2.238,2.238,0,0,0,2.1,1.631.856.856,0,0,0,.7-.233l6.291-2.33a2.377,2.377,0,0,0,.233-4.427Z" transform="translate(-235.013 -22.007)" fill="#007048"/>
        <path id="Path_223" data-name="Path 223" d="M175.035,161.1a2.447,2.447,0,0,0,2.1,1.165h11.65a2.33,2.33,0,1,0,0-4.66h-7.456l10.951-17.941-1.165,10.718a4.391,4.391,0,0,0,.466,1.864c.233.466,1.165.7,1.864.7H200.9l-10.951,17.941.233-1.4a2.342,2.342,0,0,0-4.66-.466l-1.4,11.65a2.268,2.268,0,0,0,1.631,2.563c.233,0,.466.233.7.233a2.78,2.78,0,0,0,2.1-1.165l18.64-30.29a2.116,2.116,0,0,0,0-2.33,2.239,2.239,0,0,0-2.1-1.4H196l2.1-18.407a2.268,2.268,0,0,0-1.631-2.563,2.326,2.326,0,0,0-2.8.932l-18.64,30.29A4.764,4.764,0,0,0,175.035,161.1Z" transform="translate(-142.182 -101.679)" fill="#007048"/>
      </g>
    </g>
  </g>
</svg>
