<svg xmlns="http://www.w3.org/2000/svg" width="52.156" height="114.083" viewBox="0 0 52.156 114.083">
  <g id="Icon3" transform="translate(-138.965)">
    <g id="Group_737" data-name="Group 737" transform="translate(138.965)">
      <g id="Path_229" data-name="Path 229" transform="translate(-138.965)" fill="#007048">
        <path d="M 165.0429382324219 113.583251953125 C 163.2644958496094 113.583251953125 161.8176116943359 112.1363830566406 161.8176116943359 110.3579254150391 L 161.8176116943359 96.69819641113281 L 161.8176116943359 96.19819641113281 L 161.3176116943359 96.19819641113281 C 149.2681732177734 96.19819641113281 139.4652404785156 86.39524841308594 139.4652404785156 74.34579467773438 L 139.4652404785156 70.62047576904297 C 139.4652404785156 68.84202575683594 140.912109375 67.39514923095703 142.6905517578125 67.39514923095703 L 146.4158782958984 67.39514923095703 C 151.795166015625 67.39514923095703 156.9687805175781 69.376708984375 160.9836883544922 72.97482299804688 L 161.8173828125 73.72196197509766 L 161.8173828125 72.60246276855469 L 161.8173828125 59.60627746582031 L 161.8173828125 59.10627746582031 L 161.3173828125 59.10627746582031 L 157.5920715332031 59.10627746582031 C 151.7052001953125 59.10627746582031 146.9158782958984 54.31696319580078 146.9158782958984 48.43009185791016 L 146.9158782958984 36.61306381225586 L 146.9158782958984 36.25986480712891 L 146.5829925537109 36.14182281494141 C 142.3255004882813 34.63209533691406 139.4650115966797 30.58763694763184 139.4650115966797 26.07770729064941 C 139.4650115966797 20.19083595275879 144.2543334960938 15.40152263641357 150.1412048339844 15.40152263641357 L 153.8665161132813 15.40152263641357 L 154.3665161132813 15.40152263641357 L 154.3665161132813 14.90152263641357 L 154.3665161132813 3.725322246551514 C 154.3665161132813 1.946879267692566 155.8134002685547 0.5000078678131104 157.5918579101563 0.5000078678131104 C 159.3704223632813 0.5000078678131104 160.8173828125 1.946879267692566 160.8173828125 3.725322246551514 L 160.8173828125 14.90152263641357 L 160.8173828125 15.40152263641357 L 161.3173828125 15.40152263641357 L 168.7682495117188 15.40152263641357 L 169.2682495117188 15.40152263641357 L 169.2682495117188 14.90152263641357 L 169.2682495117188 3.725322246551514 C 169.2682495117188 1.946879267692566 170.7151336669922 0.5000078678131104 172.4935913085938 0.5000078678131104 C 174.2719573974609 0.5000078678131104 175.7189331054688 1.946907877922058 175.7191467285156 3.725379228591919 L 175.7191467285156 14.90173625946045 L 175.7191467285156 15.40173625946045 L 176.2191467285156 15.40173625946045 L 179.9444580078125 15.40173625946045 C 185.8313293457031 15.40173625946045 190.6206512451172 20.19106483459473 190.6206512451172 26.07793617248535 C 190.6206512451172 30.58756446838379 187.7601470947266 34.63202285766602 183.5026397705078 36.14205169677734 L 183.1697845458984 36.26010894775391 L 183.1697845458984 36.6132926940918 L 183.1697845458984 48.4303092956543 C 183.1697845458984 54.31718063354492 178.3804626464844 59.10650634765625 172.4935913085938 59.10650634765625 L 168.7682800292969 59.10650634765625 L 168.2682800292969 59.10650634765625 L 168.2682800292969 59.60650634765625 L 168.2682800292969 72.60269165039063 L 168.2682800292969 73.72219085693359 L 169.1019744873047 72.97505187988281 C 173.1168975830078 69.376953125 178.29052734375 67.39537811279297 183.6697845458984 67.39537811279297 L 187.3950958251953 67.39537811279297 C 189.1734771728516 67.39537811279297 190.6204528808594 68.84217834472656 190.6206512451172 70.62053680419922 L 190.6206512451172 74.34579467773438 C 190.6206512451172 86.39524841308594 180.8177032470703 96.19819641113281 168.7682495117188 96.19819641113281 L 168.2682495117188 96.19819641113281 L 168.2682495117188 96.69819641113281 L 168.2682495117188 110.3579254150391 C 168.2682495117188 112.1363830566406 166.8213806152344 113.583251953125 165.0429382324219 113.583251953125 Z M 183.6695556640625 73.84625244140625 C 175.1771240234375 73.84625244140625 168.2680358886719 80.75533294677734 168.2680358886719 89.24776458740234 L 168.2680358886719 89.74776458740234 L 168.7680358886719 89.74776458740234 C 172.8756256103516 89.74776458740234 176.7416076660156 88.14395141601563 179.6537780761719 85.23173522949219 C 182.5659332275391 82.31956481933594 184.1696624755859 78.45368194580078 184.1695556640625 74.34623718261719 L 184.1695404052734 73.84625244140625 L 183.6695556640625 73.84625244140625 Z M 145.9156494140625 73.84603881835938 L 145.9156494140625 74.34603881835938 C 145.9156494140625 78.45358276367188 147.5194244384766 82.31951141357422 150.4315948486328 85.23169708251953 C 153.3437652587891 88.14389038085938 157.2096710205078 89.74765014648438 161.3171844482422 89.74755096435547 L 161.8171691894531 89.74753570556641 L 161.8171691894531 89.24755096435547 C 161.8171691894531 80.75511932373047 154.9080810546875 73.84603881835938 146.4156494140625 73.84603881835938 L 145.9156494140625 73.84603881835938 Z M 153.3665161132813 36.75412368774414 L 153.3665161132813 37.25412368774414 L 153.3665161132813 48.4303092956543 C 153.3665161132813 50.76016616821289 155.2620086669922 52.65563583374023 157.5918579101563 52.65563583374023 L 172.4935913085938 52.65563583374023 C 174.8234252929688 52.65563583374023 176.7189025878906 50.76016616821289 176.7189025878906 48.4303092956543 L 176.7189025878906 37.25412368774414 L 176.7189025878906 36.75412368774414 L 176.2189025878906 36.75412368774414 L 153.8665161132813 36.75412368774414 L 153.3665161132813 36.75412368774414 Z M 150.1409759521484 21.85237884521484 C 147.8111114501953 21.85237884521484 145.9156494140625 23.74785041809082 145.9156494140625 26.07770729064941 C 145.9156494140625 27.2048511505127 146.3556365966797 28.26555061340332 147.1545715332031 29.06442260742188 C 147.9534912109375 29.8632640838623 149.0141906738281 30.30315017700195 150.1412658691406 30.30302238464355 L 179.9442443847656 30.30302238464355 C 182.2740936279297 30.30302238464355 184.1695556640625 28.40755081176758 184.1695556640625 26.07770729064941 C 184.1695556640625 23.74785041809082 182.2740936279297 21.85237884521484 179.9442443847656 21.85237884521484 L 150.1409759521484 21.85237884521484 Z" stroke="none"/>
        <path d="M 165.0429382324219 113.083251953125 C 166.5456848144531 113.083251953125 167.7682495117188 111.8606872558594 167.7682495117188 110.3579330444336 L 167.7682495117188 96.69818878173828 L 167.7682495117188 95.69818878173828 L 168.7682495117188 95.69818878173828 C 180.5420074462891 95.69818878173828 190.1206512451172 86.11954498291016 190.1206512451172 74.34579467773438 L 190.1206512451172 70.62059020996094 C 190.1204833984375 69.11789703369141 188.8977966308594 67.89537811279297 187.3950958251953 67.89537811279297 L 183.6697845458984 67.89537811279297 C 178.4138641357422 67.89537811279297 173.3587493896484 69.83160400390625 169.4356689453125 73.34740447998047 L 167.7682800292969 74.84168243408203 L 167.7682800292969 72.60269927978516 L 167.7682800292969 59.60649871826172 L 167.7682800292969 58.60649871826172 L 168.7682800292969 58.60649871826172 L 172.4935913085938 58.60649871826172 C 178.1047515869141 58.60649871826172 182.6697845458984 54.04148483276367 182.6697845458984 48.43031311035156 L 182.6697845458984 36.61330032348633 L 182.6697845458984 35.90694427490234 L 183.3355102539063 35.67082214355469 C 187.3939056396484 34.23140716552734 190.1206512451172 30.37631416320801 190.1206512451172 26.07793045043945 C 190.1206512451172 20.46676063537598 185.5556335449219 15.9017448425293 179.9444580078125 15.9017448425293 L 176.2191619873047 15.9017448425293 L 175.2191619873047 15.9017448425293 L 175.2191619873047 14.9017448425293 L 175.2191619873047 3.725452899932861 C 175.2189636230469 2.22263765335083 173.9962921142578 1.000006794929504 172.4935913085938 1.000006794929504 C 170.9908294677734 1.000006794929504 169.7682495117188 2.222575902938843 169.7682495117188 3.725329875946045 L 169.7682495117188 14.90151405334473 L 169.7682495117188 15.90151405334473 L 168.7682495117188 15.90151405334473 L 161.3173828125 15.90151405334473 L 160.3173828125 15.90151405334473 L 160.3173828125 14.90151405334473 L 160.3173828125 3.725329875946045 C 160.3173828125 2.222575902938843 159.0947265625 1.000006794929504 157.5918579101563 1.000006794929504 C 156.089111328125 1.000006794929504 154.8665161132813 2.222575902938843 154.8665161132813 3.725329875946045 L 154.8665161132813 14.90151405334473 L 154.8665161132813 15.90151405334473 L 153.8665161132813 15.90151405334473 L 150.1412048339844 15.90151405334473 C 144.530029296875 15.90151405334473 139.9650115966797 20.46654510498047 139.9650115966797 26.07771492004395 C 139.9650115966797 30.37637519836426 142.6917266845703 34.23145294189453 146.7500915527344 35.67057418823242 L 147.4158782958984 35.90666961669922 L 147.4158782958984 36.61306762695313 L 147.4158782958984 48.43009948730469 C 147.4158782958984 54.04126739501953 151.9809112548828 58.60628509521484 157.5920715332031 58.60628509521484 L 161.3173828125 58.60628509521484 L 162.3173828125 58.60628509521484 L 162.3173828125 59.60628509521484 L 162.3173828125 72.60247039794922 L 162.3173828125 74.84146881103516 L 160.6499786376953 73.34717559814453 C 156.7269439697266 69.83139038085938 151.6718292236328 67.89515686035156 146.4158782958984 67.89515686035156 L 142.6905517578125 67.89515686035156 C 141.1878204345703 67.89515686035156 139.9652404785156 69.11772918701172 139.9652404785156 70.6204833984375 L 139.9652404785156 74.34579467773438 C 139.9652404785156 86.11954498291016 149.5438842773438 95.69818878173828 161.3176116943359 95.69818878173828 L 162.3176116943359 95.69818878173828 L 162.3176116943359 96.69818878173828 L 162.3176116943359 110.3579330444336 C 162.3176116943359 111.8606872558594 163.5401916503906 113.083251953125 165.0429382324219 113.083251953125 M 183.6695556640625 73.34625244140625 L 184.6695251464844 73.34625244140625 L 184.6695556640625 74.34622192382813 C 184.6696624755859 78.58721923828125 183.0139312744141 82.57866668701172 180.00732421875 85.58528137207031 C 177.0007171630859 88.59192657470703 173.0091857910156 90.24775695800781 168.7680358886719 90.24775695800781 L 167.7680358886719 90.24775695800781 L 167.7680358886719 89.24775695800781 C 167.7680358886719 80.47963714599609 174.9014282226563 73.34625244140625 183.6695556640625 73.34625244140625 M 145.4156494140625 73.34603881835938 L 146.4156494140625 73.34603881835938 C 155.1837768554688 73.34603881835938 162.3171691894531 80.47942352294922 162.3171691894531 89.24754333496094 L 162.3171691894531 90.24751281738281 L 161.3171997070313 90.24754333496094 C 157.0761260986328 90.24765014648438 153.0846405029297 88.59188079833984 150.0780334472656 85.58523559570313 C 147.0714416503906 82.57862091064453 145.4156494140625 78.58712768554688 145.4156494140625 74.34603881835938 L 145.4156494140625 73.34603881835938 M 152.8665161132813 36.25411605834961 L 153.8665161132813 36.25411605834961 L 176.2189025878906 36.25411605834961 L 177.2189025878906 36.25411605834961 L 177.2189025878906 37.25411605834961 L 177.2189025878906 48.43031311035156 C 177.2189025878906 51.03586959838867 175.0991363525391 53.15563583374023 172.4935913085938 53.15563583374023 L 157.5918579101563 53.15563583374023 C 154.9863128662109 53.15563583374023 152.8665161132813 51.03586959838867 152.8665161132813 48.43031311035156 L 152.8665161132813 37.25411605834961 L 152.8665161132813 36.25411605834961 M 150.1409759521484 21.35239219665527 L 179.9442443847656 21.35239219665527 C 182.5497894287109 21.35239219665527 184.6695556640625 23.47216033935547 184.6695556640625 26.07771492004395 C 184.6695556640625 28.68325233459473 182.5497894287109 30.80302238464355 179.9442443847656 30.80302238464355 L 150.1413116455078 30.80302238464355 C 148.8806762695313 30.80315971374512 147.6944122314453 30.31128311157227 146.801025390625 29.41799163818359 C 145.9076538085938 28.52468299865723 145.4156494140625 27.33842277526855 145.4156494140625 26.07771492004395 C 145.4156494140625 23.47216033935547 147.5354156494141 21.35239219665527 150.1409759521484 21.35239219665527 M 165.0429382324219 114.083251953125 C 162.9856414794922 114.083251953125 161.3176116943359 112.4154510498047 161.3176116943359 110.3579330444336 L 161.3176116943359 96.69818878173828 C 148.9925689697266 96.69818878173828 138.9652404785156 86.67085266113281 138.9652404785156 74.34579467773438 L 138.9652404785156 70.6204833984375 C 138.9652404785156 68.56317901611328 140.633056640625 66.89515686035156 142.6905517578125 66.89515686035156 L 146.4158782958984 66.89515686035156 C 152.1356658935547 66.89515686035156 157.3596801757813 69.05562591552734 161.3173828125 72.60247039794922 L 161.3173828125 59.60628509521484 L 157.5920715332031 59.60628509521484 C 151.4295349121094 59.60628509521484 146.4158782958984 54.59260559082031 146.4158782958984 48.43009948730469 L 146.4158782958984 36.61306762695313 C 142.07958984375 35.07538986206055 138.9650115966797 30.93428421020508 138.9650115966797 26.07771492004395 C 138.9650115966797 19.91517639160156 143.9786834716797 14.90151405334473 150.1412048339844 14.90151405334473 L 153.8665161132813 14.90151405334473 L 153.8665161132813 3.725329875946045 C 153.8665161132813 1.668037533760071 155.5343322753906 6.777249836886767e-06 157.5918579101563 6.777249836886767e-06 C 159.6493682861328 6.777249836886767e-06 161.3173828125 1.668037533760071 161.3173828125 3.725329875946045 L 161.3173828125 14.90151405334473 L 168.7682495117188 14.90151405334473 L 168.7682495117188 3.725329875946045 C 168.7682495117188 1.668037533760071 170.436279296875 6.777249836886767e-06 172.4935913085938 6.777249836886767e-06 C 174.5508728027344 6.777249836886767e-06 176.2189025878906 1.668037533760071 176.2191619873047 3.725329875946045 L 176.2191619873047 14.9017448425293 L 179.9444580078125 14.9017448425293 C 186.1069793701172 14.9017448425293 191.1206512451172 19.91540718078613 191.1206512451172 26.07793045043945 C 191.1206512451172 30.93451499938965 188.005859375 35.07538986206055 183.6697845458984 36.61330032348633 L 183.6697845458984 48.43031311035156 C 183.6697845458984 54.59283828735352 178.6561279296875 59.60649871826172 172.4935913085938 59.60649871826172 L 168.7682800292969 59.60649871826172 L 168.7682800292969 72.60269927978516 C 172.7257690429688 69.05606842041016 177.9497680664063 66.89537811279297 183.6697845458984 66.89537811279297 L 187.3950958251953 66.89537811279297 C 189.4526214599609 66.89537811279297 191.1204223632813 68.56319427490234 191.1206512451172 70.6204833984375 L 191.1206512451172 74.34579467773438 C 191.1206512451172 86.67085266113281 181.0933227539063 96.69818878173828 168.7682495117188 96.69818878173828 L 168.7682495117188 110.3579330444336 C 168.7682495117188 112.4152221679688 167.1004638671875 114.083251953125 165.0429382324219 114.083251953125 Z M 183.6695556640625 74.34625244140625 C 175.4528503417969 74.34625244140625 168.7680358886719 81.03105163574219 168.7680358886719 89.24775695800781 C 176.9849548339844 89.24775695800781 183.6697692871094 82.56272888183594 183.6695556640625 74.34625244140625 Z M 161.3171691894531 89.24754333496094 C 161.3171691894531 81.03085327148438 154.6323547363281 74.34603881835938 146.4156494140625 74.34603881835938 C 146.4156494140625 82.56272888183594 153.1004638671875 89.24775695800781 161.3171691894531 89.24754333496094 Z M 153.8665161132813 37.25411605834961 L 153.8665161132813 48.43031311035156 C 153.8665161132813 50.48448181152344 155.5376739501953 52.15563583374023 157.5918579101563 52.15563583374023 L 172.4935913085938 52.15563583374023 C 174.5477600097656 52.15563583374023 176.2189025878906 50.48448181152344 176.2189025878906 48.43031311035156 L 176.2189025878906 37.25411605834961 L 153.8665161132813 37.25411605834961 Z M 150.1409759521484 22.35239219665527 C 148.0867919921875 22.35239219665527 146.4156494140625 24.02352905273438 146.4156494140625 26.07771492004395 C 146.4156494140625 28.13209915161133 148.0870361328125 29.80325317382813 150.1412048339844 29.80302238464355 L 179.9442443847656 29.80302238464355 C 181.9984130859375 29.80302238464355 183.6695556640625 28.13188362121582 183.6695556640625 26.07771492004395 C 183.6695556640625 24.02352905273438 181.9984130859375 22.35239219665527 179.9442443847656 22.35239219665527 L 150.1409759521484 22.35239219665527 Z" stroke="none" fill="#fbf7ee"/>
      </g>
    </g>
  </g>
</svg>
