<svg xmlns="http://www.w3.org/2000/svg" width="86.974" height="114.083" viewBox="0 0 86.974 114.083">
  <g id="Icon2" transform="translate(-24.149)">
    <g id="Group_746" data-name="Group 746" transform="translate(24.149)">
      <path id="Path_236" data-name="Path 236" d="M110.3,67.2,84.232,48.256a6.645,6.645,0,0,0-6.674-1.066,9.977,9.977,0,0,0-4.443-7.511c.02-.022.046-.037.066-.059A7.372,7.372,0,0,0,75,33.837L71.627,1.792A2,2,0,0,0,69.637,0h-4a2,2,0,0,0-1.99,1.792L60.271,33.837a7.366,7.366,0,0,0,1.817,5.784c.02.022.045.037.066.059a9.978,9.978,0,0,0-4.44,7.51,7.15,7.15,0,0,0-.758-.247,7.33,7.33,0,0,0-5.917,1.313L24.974,67.2a2,2,0,0,0-.557,2.619l2,3.467a2,2,0,0,0,2.547.829L58.4,61.013a7.546,7.546,0,0,0,2.987-2.4L57.8,98.071H47.621a2,2,0,0,0-2,2v12.009a2,2,0,0,0,2,2H87.65a2,2,0,0,0,2-2V100.072a2,2,0,0,0-2-2H77.47L73.883,58.61a7.536,7.536,0,0,0,2.987,2.4l29.437,13.1a2,2,0,0,0,2.547-.829l2-3.467A2,2,0,0,0,110.3,67.2ZM58.7,55.308a3.417,3.417,0,0,1-1.921,2.046L28.984,69.725l-.2-.348L53.393,51.493a3.456,3.456,0,0,1,5.3,3.815ZM64.25,34.256,67.436,4h.4L71.02,34.256a3.417,3.417,0,0,1-.815,2.684,3.67,3.67,0,0,1-5.143,0A3.429,3.429,0,0,1,64.25,34.256Zm3.386,7.775a6,6,0,1,1-6,6A6.011,6.011,0,0,1,67.636,42.03ZM73.45,98.071H61.821L65.46,58.042h4.351Zm2.191,4H85.649v8.006H49.622v-8.006H75.642Zm30.645-32.349L78.5,57.354a3.452,3.452,0,0,1,.651-6.5,3.166,3.166,0,0,1,.661-.068,3.529,3.529,0,0,1,2.072.7l24.608,17.884Z" transform="translate(-24.149)" fill="#007048"/>
    </g>
  </g>
</svg>
