<svg xmlns="http://www.w3.org/2000/svg" width="105.762" height="105.802" viewBox="0 0 105.762 105.802">
  <g id="Icon4" transform="translate(-0.074)">
    <g id="Group_743" data-name="Group 743" transform="translate(0.074)">
      <g id="Group_742" data-name="Group 742" transform="translate(0)">
        <path id="Path_234" data-name="Path 234" d="M93.452,2.421A2.931,2.931,0,0,0,90.578,0H15.345a2.963,2.963,0,0,0-2.891,2.421L.121,69.658a2.83,2.83,0,0,0,2.891,3.484H42.275V99.915h-4.79a2.944,2.944,0,1,0,0,5.887H68.421a2.944,2.944,0,0,0,0-5.887H63.613V73.09h39.28a2.94,2.94,0,0,0,2.944-2.944C105.854,69.832,93.452,2.421,93.452,2.421ZM57.76,100.054h-9.6V73.107h9.6ZM6.531,67.237,17.784,5.87H88.122L99.357,67.237Z" transform="translate(-0.074)" fill="#007048"/>
      </g>
    </g>
    <g id="Group_745" data-name="Group 745" transform="translate(14.427 12.838)">
      <g id="Group_744" data-name="Group 744">
        <path id="Path_235" data-name="Path 235" d="M122.752,50.065a2.965,2.965,0,0,0-2.909-2.421H63.876a2.963,2.963,0,0,0-2.891,2.421L53.39,91.609a2.83,2.83,0,0,0,2.891,3.484h71.226a2.94,2.94,0,0,0,2.944-2.944C130.451,91.818,122.752,50.065,122.752,50.065ZM105.3,53.514h12.089l2.735,14.91H105.3V53.514ZM78.438,89.188H59.8l2.735-14.91h15.9v14.91Zm0-20.763H63.615l2.735-14.91H78.438Zm20.99,20.763H84.309V74.278h15.12v14.91Zm0-20.763H84.309V53.514h15.12V68.425Zm5.87,20.763V74.278h15.9l2.735,14.91Z" transform="translate(-53.343 -47.644)" fill="#007048"/>
      </g>
    </g>
  </g>
</svg>
