<svg xmlns="http://www.w3.org/2000/svg" width="372.401" height="48.5" viewBox="0 0 372.401 48.5">
  <g id="Component_4_1" data-name="Component 4 – 1" transform="translate(0.5 0.5)">
    <path id="Exclusion_1" data-name="Exclusion 1" d="M45.407,45.066a23.579,23.579,0,0,1-2.522-.166c-.992-.11-2.023-.273-3.064-.483a26.975,26.975,0,0,1-2.964-.77,9.138,9.138,0,0,1-2.251-1.027v-7.4a10.835,10.835,0,0,0,2.236,1.632,16.914,16.914,0,0,0,2.75,1.223,20.728,20.728,0,0,0,2.906.77,14.669,14.669,0,0,0,2.678.272c2.836,0,4.979-.508,6.369-1.509a5.086,5.086,0,0,0,2.094-4.379,5.015,5.015,0,0,0-.7-2.673,7.582,7.582,0,0,0-1.952-2.069,20.305,20.305,0,0,0-2.949-1.8c-1.112-.565-2.335-1.17-3.633-1.8-1.382-.783-2.686-1.586-3.875-2.386a16.969,16.969,0,0,1-3.12-2.673,11.315,11.315,0,0,1-2.081-3.307,11.4,11.4,0,0,1-.755-4.319,10.486,10.486,0,0,1,1.3-5.3A11.385,11.385,0,0,1,39.294,3.19a15.307,15.307,0,0,1,4.83-2.174A21.834,21.834,0,0,1,49.652.306c4.255,0,7.4.518,9.347,1.54v7.1a14.387,14.387,0,0,0-8.948-2.658,15.2,15.2,0,0,0-3.006.3,8.669,8.669,0,0,0-2.678,1,5.954,5.954,0,0,0-1.923,1.782,4.577,4.577,0,0,0-.741,2.628,5.233,5.233,0,0,0,.57,2.506,6.375,6.375,0,0,0,1.667,1.933,16.956,16.956,0,0,0,2.678,1.706c1.057.555,2.289,1.159,3.662,1.8,1.412.778,2.769,1.611,4.032,2.477a19.359,19.359,0,0,1,3.334,2.869,12.708,12.708,0,0,1,2.28,3.488,10.812,10.812,0,0,1,.841,4.364,11.386,11.386,0,0,1-1.254,5.557,10.507,10.507,0,0,1-3.377,3.685,14.632,14.632,0,0,1-4.887,2.054A26.162,26.162,0,0,1,45.407,45.066ZM86.263,44H78.407V6.819H64.578V0H101.04V6.819H86.263ZM7.4,43.409H0V.689H28.778V6.508H7.4V16.925H23.971v6.761H7.4V43.408Z" transform="translate(0)" fill="#538dd5" stroke="rgba(0,0,0,0)" stroke-miterlimit="10" stroke-width="1"/>
    <text id="design_deliver_empower" data-name="design deliver empower" transform="translate(120.901 42)" fill="#538dd5" font-size="23" font-family="SegoeUI-Semibold, Segoe UI" font-weight="600"><tspan x="0" y="0">design deliver empower</tspan></text>
  </g>
</svg>
